<mxfile host="app.diagrams.net" modified="2024-05-04T12:31:45.315Z" agent="Mozilla/5.0 (Windows NT 10.0; Win64; x64) AppleWebKit/537.36 (KHTML, like Gecko) Chrome/124.0.0.0 Safari/537.36" etag="982MuH4EWpdyumqjabog" version="24.3.1" type="device">
  <diagram id="R2lEEEUBdFMjLlhIrx00" name="Page-1">
    <mxGraphModel dx="3155" dy="787" grid="1" gridSize="12" guides="1" tooltips="1" connect="1" arrows="1" fold="1" page="1" pageScale="1" pageWidth="1600" pageHeight="1200" math="0" shadow="0" extFonts="Permanent Marker^https://fonts.googleapis.com/css?family=Permanent+Marker">
      <root>
        <mxCell id="0" />
        <mxCell id="1" parent="0" />
        <mxCell id="wk3GqWwJmSvWAWaqU97m-68" value="Facebook" style="shape=table;startSize=30;container=1;collapsible=1;childLayout=tableLayout;fixedRows=1;rowLines=0;fontStyle=1;align=center;resizeLast=1;html=1;whiteSpace=wrap;fontSize=18;" parent="1" vertex="1">
          <mxGeometry x="-324" y="984" width="252" height="144" as="geometry" />
        </mxCell>
        <mxCell id="wk3GqWwJmSvWAWaqU97m-69" value="" style="shape=tableRow;horizontal=0;startSize=0;swimlaneHead=0;swimlaneBody=0;fillColor=none;collapsible=0;dropTarget=0;points=[[0,0.5],[1,0.5]];portConstraint=eastwest;top=0;left=0;right=0;bottom=0;html=1;fontSize=16;" parent="wk3GqWwJmSvWAWaqU97m-68" vertex="1">
          <mxGeometry y="30" width="252" height="30" as="geometry" />
        </mxCell>
        <mxCell id="wk3GqWwJmSvWAWaqU97m-70" value="PK" style="shape=partialRectangle;connectable=0;fillColor=none;top=0;left=0;bottom=0;right=0;fontStyle=1;overflow=hidden;html=1;whiteSpace=wrap;fontSize=16;" parent="wk3GqWwJmSvWAWaqU97m-69" vertex="1">
          <mxGeometry width="60" height="30" as="geometry">
            <mxRectangle width="60" height="30" as="alternateBounds" />
          </mxGeometry>
        </mxCell>
        <mxCell id="wk3GqWwJmSvWAWaqU97m-71" value="fb_AccID" style="shape=partialRectangle;connectable=0;fillColor=none;top=0;left=0;bottom=0;right=0;align=left;spacingLeft=6;fontStyle=5;overflow=hidden;html=1;whiteSpace=wrap;fontSize=16;" parent="wk3GqWwJmSvWAWaqU97m-69" vertex="1">
          <mxGeometry x="60" width="192" height="30" as="geometry">
            <mxRectangle width="192" height="30" as="alternateBounds" />
          </mxGeometry>
        </mxCell>
        <mxCell id="wk3GqWwJmSvWAWaqU97m-72" value="" style="shape=tableRow;horizontal=0;startSize=0;swimlaneHead=0;swimlaneBody=0;fillColor=none;collapsible=0;dropTarget=0;points=[[0,0.5],[1,0.5]];portConstraint=eastwest;top=0;left=0;right=0;bottom=1;html=1;" parent="wk3GqWwJmSvWAWaqU97m-68" vertex="1">
          <mxGeometry y="60" width="252" height="30" as="geometry" />
        </mxCell>
        <mxCell id="wk3GqWwJmSvWAWaqU97m-73" value="FK" style="shape=partialRectangle;connectable=0;fillColor=none;top=0;left=0;bottom=0;right=0;fontStyle=1;overflow=hidden;html=1;whiteSpace=wrap;fontSize=16;" parent="wk3GqWwJmSvWAWaqU97m-72" vertex="1">
          <mxGeometry width="60" height="30" as="geometry">
            <mxRectangle width="60" height="30" as="alternateBounds" />
          </mxGeometry>
        </mxCell>
        <mxCell id="wk3GqWwJmSvWAWaqU97m-74" value="socialMediaID" style="shape=partialRectangle;connectable=0;fillColor=none;top=0;left=0;bottom=0;right=0;align=left;spacingLeft=6;fontStyle=5;overflow=hidden;html=1;whiteSpace=wrap;fontSize=16;" parent="wk3GqWwJmSvWAWaqU97m-72" vertex="1">
          <mxGeometry x="60" width="192" height="30" as="geometry">
            <mxRectangle width="192" height="30" as="alternateBounds" />
          </mxGeometry>
        </mxCell>
        <mxCell id="wk3GqWwJmSvWAWaqU97m-75" value="" style="shape=tableRow;horizontal=0;startSize=0;swimlaneHead=0;swimlaneBody=0;fillColor=none;collapsible=0;dropTarget=0;points=[[0,0.5],[1,0.5]];portConstraint=eastwest;top=0;left=0;right=0;bottom=0;html=1;" parent="wk3GqWwJmSvWAWaqU97m-68" vertex="1">
          <mxGeometry y="90" width="252" height="30" as="geometry" />
        </mxCell>
        <mxCell id="wk3GqWwJmSvWAWaqU97m-76" value="" style="shape=partialRectangle;connectable=0;fillColor=none;top=0;left=0;bottom=0;right=0;editable=1;overflow=hidden;html=1;whiteSpace=wrap;" parent="wk3GqWwJmSvWAWaqU97m-75" vertex="1">
          <mxGeometry width="60" height="30" as="geometry">
            <mxRectangle width="60" height="30" as="alternateBounds" />
          </mxGeometry>
        </mxCell>
        <mxCell id="wk3GqWwJmSvWAWaqU97m-77" value="User_Name" style="shape=partialRectangle;connectable=0;fillColor=none;top=0;left=0;bottom=0;right=0;align=left;spacingLeft=6;overflow=hidden;html=1;whiteSpace=wrap;fontSize=16;" parent="wk3GqWwJmSvWAWaqU97m-75" vertex="1">
          <mxGeometry x="60" width="192" height="30" as="geometry">
            <mxRectangle width="192" height="30" as="alternateBounds" />
          </mxGeometry>
        </mxCell>
        <mxCell id="wk3GqWwJmSvWAWaqU97m-78" value="" style="shape=tableRow;horizontal=0;startSize=0;swimlaneHead=0;swimlaneBody=0;fillColor=none;collapsible=0;dropTarget=0;points=[[0,0.5],[1,0.5]];portConstraint=eastwest;top=0;left=0;right=0;bottom=0;html=1;" parent="wk3GqWwJmSvWAWaqU97m-68" vertex="1">
          <mxGeometry y="120" width="252" height="24" as="geometry" />
        </mxCell>
        <mxCell id="wk3GqWwJmSvWAWaqU97m-79" value="" style="shape=partialRectangle;connectable=0;fillColor=none;top=0;left=0;bottom=0;right=0;editable=1;overflow=hidden;html=1;whiteSpace=wrap;" parent="wk3GqWwJmSvWAWaqU97m-78" vertex="1">
          <mxGeometry width="60" height="24" as="geometry">
            <mxRectangle width="60" height="24" as="alternateBounds" />
          </mxGeometry>
        </mxCell>
        <mxCell id="wk3GqWwJmSvWAWaqU97m-80" value="Profile_URL" style="shape=partialRectangle;connectable=0;fillColor=none;top=0;left=0;bottom=0;right=0;align=left;spacingLeft=6;overflow=hidden;html=1;whiteSpace=wrap;fontSize=16;" parent="wk3GqWwJmSvWAWaqU97m-78" vertex="1">
          <mxGeometry x="60" width="192" height="24" as="geometry">
            <mxRectangle width="192" height="24" as="alternateBounds" />
          </mxGeometry>
        </mxCell>
        <mxCell id="b6UDOTv8NxBABLAUBQvk-1" value="&lt;span style=&quot;font-size: 18px; font-weight: 400;&quot;&gt;Instagram&lt;/span&gt;" style="shape=table;startSize=30;container=1;collapsible=1;childLayout=tableLayout;fixedRows=1;rowLines=0;fontStyle=1;align=center;resizeLast=1;html=1;whiteSpace=wrap;fontSize=18;" parent="1" vertex="1">
          <mxGeometry x="-1584" y="984" width="228" height="144" as="geometry" />
        </mxCell>
        <mxCell id="b6UDOTv8NxBABLAUBQvk-2" value="" style="shape=tableRow;horizontal=0;startSize=0;swimlaneHead=0;swimlaneBody=0;fillColor=none;collapsible=0;dropTarget=0;points=[[0,0.5],[1,0.5]];portConstraint=eastwest;top=0;left=0;right=0;bottom=0;html=1;" parent="b6UDOTv8NxBABLAUBQvk-1" vertex="1">
          <mxGeometry y="30" width="228" height="30" as="geometry" />
        </mxCell>
        <mxCell id="b6UDOTv8NxBABLAUBQvk-3" value="PK" style="shape=partialRectangle;connectable=0;fillColor=none;top=0;left=0;bottom=0;right=0;fontStyle=1;overflow=hidden;html=1;whiteSpace=wrap;fontSize=16;" parent="b6UDOTv8NxBABLAUBQvk-2" vertex="1">
          <mxGeometry width="60" height="30" as="geometry">
            <mxRectangle width="60" height="30" as="alternateBounds" />
          </mxGeometry>
        </mxCell>
        <mxCell id="b6UDOTv8NxBABLAUBQvk-4" value="instaAccID" style="shape=partialRectangle;connectable=0;fillColor=none;top=0;left=0;bottom=0;right=0;align=left;spacingLeft=6;fontStyle=5;overflow=hidden;html=1;whiteSpace=wrap;fontSize=16;" parent="b6UDOTv8NxBABLAUBQvk-2" vertex="1">
          <mxGeometry x="60" width="168" height="30" as="geometry">
            <mxRectangle width="168" height="30" as="alternateBounds" />
          </mxGeometry>
        </mxCell>
        <mxCell id="b6UDOTv8NxBABLAUBQvk-5" value="" style="shape=tableRow;horizontal=0;startSize=0;swimlaneHead=0;swimlaneBody=0;fillColor=none;collapsible=0;dropTarget=0;points=[[0,0.5],[1,0.5]];portConstraint=eastwest;top=0;left=0;right=0;bottom=1;html=1;" parent="b6UDOTv8NxBABLAUBQvk-1" vertex="1">
          <mxGeometry y="60" width="228" height="30" as="geometry" />
        </mxCell>
        <mxCell id="b6UDOTv8NxBABLAUBQvk-6" value="FK" style="shape=partialRectangle;connectable=0;fillColor=none;top=0;left=0;bottom=0;right=0;fontStyle=1;overflow=hidden;html=1;whiteSpace=wrap;fontSize=16;" parent="b6UDOTv8NxBABLAUBQvk-5" vertex="1">
          <mxGeometry width="60" height="30" as="geometry">
            <mxRectangle width="60" height="30" as="alternateBounds" />
          </mxGeometry>
        </mxCell>
        <mxCell id="b6UDOTv8NxBABLAUBQvk-7" value="socialMediaID" style="shape=partialRectangle;connectable=0;fillColor=none;top=0;left=0;bottom=0;right=0;align=left;spacingLeft=6;fontStyle=5;overflow=hidden;html=1;whiteSpace=wrap;fontSize=16;" parent="b6UDOTv8NxBABLAUBQvk-5" vertex="1">
          <mxGeometry x="60" width="168" height="30" as="geometry">
            <mxRectangle width="168" height="30" as="alternateBounds" />
          </mxGeometry>
        </mxCell>
        <mxCell id="b6UDOTv8NxBABLAUBQvk-8" value="" style="shape=tableRow;horizontal=0;startSize=0;swimlaneHead=0;swimlaneBody=0;fillColor=none;collapsible=0;dropTarget=0;points=[[0,0.5],[1,0.5]];portConstraint=eastwest;top=0;left=0;right=0;bottom=0;html=1;" parent="b6UDOTv8NxBABLAUBQvk-1" vertex="1">
          <mxGeometry y="90" width="228" height="30" as="geometry" />
        </mxCell>
        <mxCell id="b6UDOTv8NxBABLAUBQvk-9" value="" style="shape=partialRectangle;connectable=0;fillColor=none;top=0;left=0;bottom=0;right=0;editable=1;overflow=hidden;html=1;whiteSpace=wrap;" parent="b6UDOTv8NxBABLAUBQvk-8" vertex="1">
          <mxGeometry width="60" height="30" as="geometry">
            <mxRectangle width="60" height="30" as="alternateBounds" />
          </mxGeometry>
        </mxCell>
        <mxCell id="b6UDOTv8NxBABLAUBQvk-10" value="User_Name" style="shape=partialRectangle;connectable=0;fillColor=none;top=0;left=0;bottom=0;right=0;align=left;spacingLeft=6;overflow=hidden;html=1;whiteSpace=wrap;fontSize=16;" parent="b6UDOTv8NxBABLAUBQvk-8" vertex="1">
          <mxGeometry x="60" width="168" height="30" as="geometry">
            <mxRectangle width="168" height="30" as="alternateBounds" />
          </mxGeometry>
        </mxCell>
        <mxCell id="b6UDOTv8NxBABLAUBQvk-11" value="" style="shape=tableRow;horizontal=0;startSize=0;swimlaneHead=0;swimlaneBody=0;fillColor=none;collapsible=0;dropTarget=0;points=[[0,0.5],[1,0.5]];portConstraint=eastwest;top=0;left=0;right=0;bottom=0;html=1;" parent="b6UDOTv8NxBABLAUBQvk-1" vertex="1">
          <mxGeometry y="120" width="228" height="24" as="geometry" />
        </mxCell>
        <mxCell id="b6UDOTv8NxBABLAUBQvk-12" value="" style="shape=partialRectangle;connectable=0;fillColor=none;top=0;left=0;bottom=0;right=0;editable=1;overflow=hidden;html=1;whiteSpace=wrap;" parent="b6UDOTv8NxBABLAUBQvk-11" vertex="1">
          <mxGeometry width="60" height="24" as="geometry">
            <mxRectangle width="60" height="24" as="alternateBounds" />
          </mxGeometry>
        </mxCell>
        <mxCell id="b6UDOTv8NxBABLAUBQvk-13" value="Profile_URL" style="shape=partialRectangle;connectable=0;fillColor=none;top=0;left=0;bottom=0;right=0;align=left;spacingLeft=6;overflow=hidden;html=1;whiteSpace=wrap;fontSize=16;" parent="b6UDOTv8NxBABLAUBQvk-11" vertex="1">
          <mxGeometry x="60" width="168" height="24" as="geometry">
            <mxRectangle width="168" height="24" as="alternateBounds" />
          </mxGeometry>
        </mxCell>
        <mxCell id="b6UDOTv8NxBABLAUBQvk-17" value="Twitter" style="shape=table;startSize=30;container=1;collapsible=1;childLayout=tableLayout;fixedRows=1;rowLines=0;fontStyle=1;align=center;resizeLast=1;html=1;whiteSpace=wrap;fontSize=18;" parent="1" vertex="1">
          <mxGeometry x="-1140" y="980" width="228" height="144.00000000000023" as="geometry" />
        </mxCell>
        <mxCell id="b6UDOTv8NxBABLAUBQvk-18" value="" style="shape=tableRow;horizontal=0;startSize=0;swimlaneHead=0;swimlaneBody=0;fillColor=none;collapsible=0;dropTarget=0;points=[[0,0.5],[1,0.5]];portConstraint=eastwest;top=0;left=0;right=0;bottom=0;html=1;" parent="b6UDOTv8NxBABLAUBQvk-17" vertex="1">
          <mxGeometry y="30" width="228" height="30" as="geometry" />
        </mxCell>
        <mxCell id="b6UDOTv8NxBABLAUBQvk-19" value="PK" style="shape=partialRectangle;connectable=0;fillColor=none;top=0;left=0;bottom=0;right=0;fontStyle=1;overflow=hidden;html=1;whiteSpace=wrap;fontSize=16;" parent="b6UDOTv8NxBABLAUBQvk-18" vertex="1">
          <mxGeometry width="60" height="30" as="geometry">
            <mxRectangle width="60" height="30" as="alternateBounds" />
          </mxGeometry>
        </mxCell>
        <mxCell id="b6UDOTv8NxBABLAUBQvk-20" value="t_AccID" style="shape=partialRectangle;connectable=0;fillColor=none;top=0;left=0;bottom=0;right=0;align=left;spacingLeft=6;fontStyle=5;overflow=hidden;html=1;whiteSpace=wrap;fontSize=16;" parent="b6UDOTv8NxBABLAUBQvk-18" vertex="1">
          <mxGeometry x="60" width="168" height="30" as="geometry">
            <mxRectangle width="168" height="30" as="alternateBounds" />
          </mxGeometry>
        </mxCell>
        <mxCell id="b6UDOTv8NxBABLAUBQvk-21" value="" style="shape=tableRow;horizontal=0;startSize=0;swimlaneHead=0;swimlaneBody=0;fillColor=none;collapsible=0;dropTarget=0;points=[[0,0.5],[1,0.5]];portConstraint=eastwest;top=0;left=0;right=0;bottom=1;html=1;" parent="b6UDOTv8NxBABLAUBQvk-17" vertex="1">
          <mxGeometry y="60" width="228" height="30" as="geometry" />
        </mxCell>
        <mxCell id="b6UDOTv8NxBABLAUBQvk-22" value="FK" style="shape=partialRectangle;connectable=0;fillColor=none;top=0;left=0;bottom=0;right=0;fontStyle=1;overflow=hidden;html=1;whiteSpace=wrap;fontSize=16;" parent="b6UDOTv8NxBABLAUBQvk-21" vertex="1">
          <mxGeometry width="60" height="30" as="geometry">
            <mxRectangle width="60" height="30" as="alternateBounds" />
          </mxGeometry>
        </mxCell>
        <mxCell id="b6UDOTv8NxBABLAUBQvk-23" value="socialMediaID" style="shape=partialRectangle;connectable=0;fillColor=none;top=0;left=0;bottom=0;right=0;align=left;spacingLeft=6;fontStyle=5;overflow=hidden;html=1;whiteSpace=wrap;fontSize=16;" parent="b6UDOTv8NxBABLAUBQvk-21" vertex="1">
          <mxGeometry x="60" width="168" height="30" as="geometry">
            <mxRectangle width="168" height="30" as="alternateBounds" />
          </mxGeometry>
        </mxCell>
        <mxCell id="b6UDOTv8NxBABLAUBQvk-24" value="" style="shape=tableRow;horizontal=0;startSize=0;swimlaneHead=0;swimlaneBody=0;fillColor=none;collapsible=0;dropTarget=0;points=[[0,0.5],[1,0.5]];portConstraint=eastwest;top=0;left=0;right=0;bottom=0;html=1;" parent="b6UDOTv8NxBABLAUBQvk-17" vertex="1">
          <mxGeometry y="90" width="228" height="30" as="geometry" />
        </mxCell>
        <mxCell id="b6UDOTv8NxBABLAUBQvk-25" value="" style="shape=partialRectangle;connectable=0;fillColor=none;top=0;left=0;bottom=0;right=0;editable=1;overflow=hidden;html=1;whiteSpace=wrap;" parent="b6UDOTv8NxBABLAUBQvk-24" vertex="1">
          <mxGeometry width="60" height="30" as="geometry">
            <mxRectangle width="60" height="30" as="alternateBounds" />
          </mxGeometry>
        </mxCell>
        <mxCell id="b6UDOTv8NxBABLAUBQvk-26" value="User_Name" style="shape=partialRectangle;connectable=0;fillColor=none;top=0;left=0;bottom=0;right=0;align=left;spacingLeft=6;overflow=hidden;html=1;whiteSpace=wrap;fontSize=16;" parent="b6UDOTv8NxBABLAUBQvk-24" vertex="1">
          <mxGeometry x="60" width="168" height="30" as="geometry">
            <mxRectangle width="168" height="30" as="alternateBounds" />
          </mxGeometry>
        </mxCell>
        <mxCell id="b6UDOTv8NxBABLAUBQvk-27" value="" style="shape=tableRow;horizontal=0;startSize=0;swimlaneHead=0;swimlaneBody=0;fillColor=none;collapsible=0;dropTarget=0;points=[[0,0.5],[1,0.5]];portConstraint=eastwest;top=0;left=0;right=0;bottom=0;html=1;" parent="b6UDOTv8NxBABLAUBQvk-17" vertex="1">
          <mxGeometry y="120" width="228" height="24" as="geometry" />
        </mxCell>
        <mxCell id="b6UDOTv8NxBABLAUBQvk-28" value="" style="shape=partialRectangle;connectable=0;fillColor=none;top=0;left=0;bottom=0;right=0;editable=1;overflow=hidden;html=1;whiteSpace=wrap;" parent="b6UDOTv8NxBABLAUBQvk-27" vertex="1">
          <mxGeometry width="60" height="24" as="geometry">
            <mxRectangle width="60" height="24" as="alternateBounds" />
          </mxGeometry>
        </mxCell>
        <mxCell id="b6UDOTv8NxBABLAUBQvk-29" value="Profile_URL" style="shape=partialRectangle;connectable=0;fillColor=none;top=0;left=0;bottom=0;right=0;align=left;spacingLeft=6;overflow=hidden;html=1;whiteSpace=wrap;fontSize=16;" parent="b6UDOTv8NxBABLAUBQvk-27" vertex="1">
          <mxGeometry x="60" width="168" height="24" as="geometry">
            <mxRectangle width="168" height="24" as="alternateBounds" />
          </mxGeometry>
        </mxCell>
        <mxCell id="b6UDOTv8NxBABLAUBQvk-36" value="LinkdedIn" style="shape=table;startSize=30;container=1;collapsible=1;childLayout=tableLayout;fixedRows=1;rowLines=0;fontStyle=1;align=center;resizeLast=1;html=1;whiteSpace=wrap;fontSize=18;" parent="1" vertex="1">
          <mxGeometry x="-708" y="977" width="252" height="147" as="geometry" />
        </mxCell>
        <mxCell id="b6UDOTv8NxBABLAUBQvk-37" value="" style="shape=tableRow;horizontal=0;startSize=0;swimlaneHead=0;swimlaneBody=0;fillColor=none;collapsible=0;dropTarget=0;points=[[0,0.5],[1,0.5]];portConstraint=eastwest;top=0;left=0;right=0;bottom=0;html=1;" parent="b6UDOTv8NxBABLAUBQvk-36" vertex="1">
          <mxGeometry y="30" width="252" height="30" as="geometry" />
        </mxCell>
        <mxCell id="b6UDOTv8NxBABLAUBQvk-38" value="PK" style="shape=partialRectangle;connectable=0;fillColor=none;top=0;left=0;bottom=0;right=0;fontStyle=1;overflow=hidden;html=1;whiteSpace=wrap;fontSize=16;" parent="b6UDOTv8NxBABLAUBQvk-37" vertex="1">
          <mxGeometry width="60" height="30" as="geometry">
            <mxRectangle width="60" height="30" as="alternateBounds" />
          </mxGeometry>
        </mxCell>
        <mxCell id="b6UDOTv8NxBABLAUBQvk-39" value="linkInID" style="shape=partialRectangle;connectable=0;fillColor=none;top=0;left=0;bottom=0;right=0;align=left;spacingLeft=6;fontStyle=5;overflow=hidden;html=1;whiteSpace=wrap;fontSize=16;" parent="b6UDOTv8NxBABLAUBQvk-37" vertex="1">
          <mxGeometry x="60" width="192" height="30" as="geometry">
            <mxRectangle width="192" height="30" as="alternateBounds" />
          </mxGeometry>
        </mxCell>
        <mxCell id="b6UDOTv8NxBABLAUBQvk-40" value="" style="shape=tableRow;horizontal=0;startSize=0;swimlaneHead=0;swimlaneBody=0;fillColor=none;collapsible=0;dropTarget=0;points=[[0,0.5],[1,0.5]];portConstraint=eastwest;top=0;left=0;right=0;bottom=1;html=1;" parent="b6UDOTv8NxBABLAUBQvk-36" vertex="1">
          <mxGeometry y="60" width="252" height="30" as="geometry" />
        </mxCell>
        <mxCell id="b6UDOTv8NxBABLAUBQvk-41" value="FK" style="shape=partialRectangle;connectable=0;fillColor=none;top=0;left=0;bottom=0;right=0;fontStyle=1;overflow=hidden;html=1;whiteSpace=wrap;fontSize=16;" parent="b6UDOTv8NxBABLAUBQvk-40" vertex="1">
          <mxGeometry width="60" height="30" as="geometry">
            <mxRectangle width="60" height="30" as="alternateBounds" />
          </mxGeometry>
        </mxCell>
        <mxCell id="b6UDOTv8NxBABLAUBQvk-42" value="socialMediaID" style="shape=partialRectangle;connectable=0;fillColor=none;top=0;left=0;bottom=0;right=0;align=left;spacingLeft=6;fontStyle=5;overflow=hidden;html=1;whiteSpace=wrap;fontSize=16;" parent="b6UDOTv8NxBABLAUBQvk-40" vertex="1">
          <mxGeometry x="60" width="192" height="30" as="geometry">
            <mxRectangle width="192" height="30" as="alternateBounds" />
          </mxGeometry>
        </mxCell>
        <mxCell id="b6UDOTv8NxBABLAUBQvk-43" value="" style="shape=tableRow;horizontal=0;startSize=0;swimlaneHead=0;swimlaneBody=0;fillColor=none;collapsible=0;dropTarget=0;points=[[0,0.5],[1,0.5]];portConstraint=eastwest;top=0;left=0;right=0;bottom=0;html=1;" parent="b6UDOTv8NxBABLAUBQvk-36" vertex="1">
          <mxGeometry y="90" width="252" height="33" as="geometry" />
        </mxCell>
        <mxCell id="b6UDOTv8NxBABLAUBQvk-44" value="" style="shape=partialRectangle;connectable=0;fillColor=none;top=0;left=0;bottom=0;right=0;editable=1;overflow=hidden;html=1;whiteSpace=wrap;" parent="b6UDOTv8NxBABLAUBQvk-43" vertex="1">
          <mxGeometry width="60" height="33" as="geometry">
            <mxRectangle width="60" height="33" as="alternateBounds" />
          </mxGeometry>
        </mxCell>
        <mxCell id="b6UDOTv8NxBABLAUBQvk-45" value="User_Name" style="shape=partialRectangle;connectable=0;fillColor=none;top=0;left=0;bottom=0;right=0;align=left;spacingLeft=6;overflow=hidden;html=1;whiteSpace=wrap;fontSize=16;" parent="b6UDOTv8NxBABLAUBQvk-43" vertex="1">
          <mxGeometry x="60" width="192" height="33" as="geometry">
            <mxRectangle width="192" height="33" as="alternateBounds" />
          </mxGeometry>
        </mxCell>
        <mxCell id="b6UDOTv8NxBABLAUBQvk-46" value="" style="shape=tableRow;horizontal=0;startSize=0;swimlaneHead=0;swimlaneBody=0;fillColor=none;collapsible=0;dropTarget=0;points=[[0,0.5],[1,0.5]];portConstraint=eastwest;top=0;left=0;right=0;bottom=0;html=1;" parent="b6UDOTv8NxBABLAUBQvk-36" vertex="1">
          <mxGeometry y="123" width="252" height="24" as="geometry" />
        </mxCell>
        <mxCell id="b6UDOTv8NxBABLAUBQvk-47" value="" style="shape=partialRectangle;connectable=0;fillColor=none;top=0;left=0;bottom=0;right=0;editable=1;overflow=hidden;html=1;whiteSpace=wrap;" parent="b6UDOTv8NxBABLAUBQvk-46" vertex="1">
          <mxGeometry width="60" height="24" as="geometry">
            <mxRectangle width="60" height="24" as="alternateBounds" />
          </mxGeometry>
        </mxCell>
        <mxCell id="b6UDOTv8NxBABLAUBQvk-48" value="Profile_URL" style="shape=partialRectangle;connectable=0;fillColor=none;top=0;left=0;bottom=0;right=0;align=left;spacingLeft=6;overflow=hidden;html=1;whiteSpace=wrap;fontSize=16;" parent="b6UDOTv8NxBABLAUBQvk-46" vertex="1">
          <mxGeometry x="60" width="192" height="24" as="geometry">
            <mxRectangle width="192" height="24" as="alternateBounds" />
          </mxGeometry>
        </mxCell>
        <mxCell id="lmLOYv4weuVmKFbOApRG-37" value="Recruiter" style="shape=table;startSize=30;container=1;collapsible=1;childLayout=tableLayout;fixedRows=1;rowLines=0;fontStyle=1;align=center;resizeLast=1;html=1;fontSize=18;" parent="1" vertex="1">
          <mxGeometry x="-528" y="372" width="252" height="206.0000000000001" as="geometry" />
        </mxCell>
        <mxCell id="6P1YGiJbpuXQbBjJBhPg-34" value="" style="shape=tableRow;horizontal=0;startSize=0;swimlaneHead=0;swimlaneBody=0;fillColor=none;collapsible=0;dropTarget=0;points=[[0,0.5],[1,0.5]];portConstraint=eastwest;top=0;left=0;right=0;bottom=0;html=1;fontSize=16;" parent="lmLOYv4weuVmKFbOApRG-37" vertex="1">
          <mxGeometry y="30" width="252" height="30" as="geometry" />
        </mxCell>
        <mxCell id="6P1YGiJbpuXQbBjJBhPg-35" value="PK" style="shape=partialRectangle;connectable=0;fillColor=none;top=0;left=0;bottom=0;right=0;fontStyle=1;overflow=hidden;html=1;whiteSpace=wrap;fontSize=16;" parent="6P1YGiJbpuXQbBjJBhPg-34" vertex="1">
          <mxGeometry width="30" height="30" as="geometry">
            <mxRectangle width="30" height="30" as="alternateBounds" />
          </mxGeometry>
        </mxCell>
        <mxCell id="6P1YGiJbpuXQbBjJBhPg-36" value="recruiter_ID" style="shape=partialRectangle;connectable=0;fillColor=none;top=0;left=0;bottom=0;right=0;align=left;spacingLeft=6;fontStyle=5;overflow=hidden;html=1;whiteSpace=wrap;fontSize=16;" parent="6P1YGiJbpuXQbBjJBhPg-34" vertex="1">
          <mxGeometry x="30" width="222" height="30" as="geometry">
            <mxRectangle width="222" height="30" as="alternateBounds" />
          </mxGeometry>
        </mxCell>
        <mxCell id="6P1YGiJbpuXQbBjJBhPg-37" value="" style="shape=tableRow;horizontal=0;startSize=0;swimlaneHead=0;swimlaneBody=0;fillColor=none;collapsible=0;dropTarget=0;points=[[0,0.5],[1,0.5]];portConstraint=eastwest;top=0;left=0;right=0;bottom=1;html=1;" parent="lmLOYv4weuVmKFbOApRG-37" vertex="1">
          <mxGeometry y="60" width="252" height="20" as="geometry" />
        </mxCell>
        <mxCell id="6P1YGiJbpuXQbBjJBhPg-38" value="" style="shape=partialRectangle;connectable=0;fillColor=none;top=0;left=0;bottom=0;right=0;fontStyle=1;overflow=hidden;html=1;whiteSpace=wrap;fontSize=16;" parent="6P1YGiJbpuXQbBjJBhPg-37" vertex="1">
          <mxGeometry width="30" height="20" as="geometry">
            <mxRectangle width="30" height="20" as="alternateBounds" />
          </mxGeometry>
        </mxCell>
        <mxCell id="6P1YGiJbpuXQbBjJBhPg-39" value="" style="shape=partialRectangle;connectable=0;fillColor=none;top=0;left=0;bottom=0;right=0;align=left;spacingLeft=6;fontStyle=5;overflow=hidden;html=1;whiteSpace=wrap;fontSize=16;" parent="6P1YGiJbpuXQbBjJBhPg-37" vertex="1">
          <mxGeometry x="30" width="222" height="20" as="geometry">
            <mxRectangle width="222" height="20" as="alternateBounds" />
          </mxGeometry>
        </mxCell>
        <mxCell id="6P1YGiJbpuXQbBjJBhPg-40" value="" style="shape=tableRow;horizontal=0;startSize=0;swimlaneHead=0;swimlaneBody=0;fillColor=none;collapsible=0;dropTarget=0;points=[[0,0.5],[1,0.5]];portConstraint=eastwest;top=0;left=0;right=0;bottom=0;html=1;" parent="lmLOYv4weuVmKFbOApRG-37" vertex="1">
          <mxGeometry y="80" width="252" height="20" as="geometry" />
        </mxCell>
        <mxCell id="6P1YGiJbpuXQbBjJBhPg-41" value="" style="shape=partialRectangle;connectable=0;fillColor=none;top=0;left=0;bottom=0;right=0;editable=1;overflow=hidden;html=1;whiteSpace=wrap;" parent="6P1YGiJbpuXQbBjJBhPg-40" vertex="1">
          <mxGeometry width="30" height="20" as="geometry">
            <mxRectangle width="30" height="20" as="alternateBounds" />
          </mxGeometry>
        </mxCell>
        <mxCell id="6P1YGiJbpuXQbBjJBhPg-42" value="first_name" style="shape=partialRectangle;connectable=0;fillColor=none;top=0;left=0;bottom=0;right=0;align=left;spacingLeft=6;overflow=hidden;html=1;whiteSpace=wrap;fontSize=16;" parent="6P1YGiJbpuXQbBjJBhPg-40" vertex="1">
          <mxGeometry x="30" width="222" height="20" as="geometry">
            <mxRectangle width="222" height="20" as="alternateBounds" />
          </mxGeometry>
        </mxCell>
        <mxCell id="6P1YGiJbpuXQbBjJBhPg-43" value="" style="shape=tableRow;horizontal=0;startSize=0;swimlaneHead=0;swimlaneBody=0;fillColor=none;collapsible=0;dropTarget=0;points=[[0,0.5],[1,0.5]];portConstraint=eastwest;top=0;left=0;right=0;bottom=0;html=1;" parent="lmLOYv4weuVmKFbOApRG-37" vertex="1">
          <mxGeometry y="100" width="252" height="22" as="geometry" />
        </mxCell>
        <mxCell id="6P1YGiJbpuXQbBjJBhPg-44" value="" style="shape=partialRectangle;connectable=0;fillColor=none;top=0;left=0;bottom=0;right=0;editable=1;overflow=hidden;html=1;whiteSpace=wrap;" parent="6P1YGiJbpuXQbBjJBhPg-43" vertex="1">
          <mxGeometry width="30" height="22" as="geometry">
            <mxRectangle width="30" height="22" as="alternateBounds" />
          </mxGeometry>
        </mxCell>
        <mxCell id="6P1YGiJbpuXQbBjJBhPg-45" value="last_name" style="shape=partialRectangle;connectable=0;fillColor=none;top=0;left=0;bottom=0;right=0;align=left;spacingLeft=6;overflow=hidden;html=1;whiteSpace=wrap;fontSize=16;" parent="6P1YGiJbpuXQbBjJBhPg-43" vertex="1">
          <mxGeometry x="30" width="222" height="22" as="geometry">
            <mxRectangle width="222" height="22" as="alternateBounds" />
          </mxGeometry>
        </mxCell>
        <mxCell id="6P1YGiJbpuXQbBjJBhPg-49" value="" style="shape=tableRow;horizontal=0;startSize=0;swimlaneHead=0;swimlaneBody=0;fillColor=none;collapsible=0;dropTarget=0;points=[[0,0.5],[1,0.5]];portConstraint=eastwest;top=0;left=0;right=0;bottom=0;html=1;" parent="lmLOYv4weuVmKFbOApRG-37" vertex="1">
          <mxGeometry y="122" width="252" height="20" as="geometry" />
        </mxCell>
        <mxCell id="6P1YGiJbpuXQbBjJBhPg-50" value="" style="shape=partialRectangle;connectable=0;fillColor=none;top=0;left=0;bottom=0;right=0;editable=1;overflow=hidden;html=1;whiteSpace=wrap;" parent="6P1YGiJbpuXQbBjJBhPg-49" vertex="1">
          <mxGeometry width="30" height="20" as="geometry">
            <mxRectangle width="30" height="20" as="alternateBounds" />
          </mxGeometry>
        </mxCell>
        <mxCell id="6P1YGiJbpuXQbBjJBhPg-51" value="email" style="shape=partialRectangle;connectable=0;fillColor=none;top=0;left=0;bottom=0;right=0;align=left;spacingLeft=6;overflow=hidden;html=1;whiteSpace=wrap;fontSize=16;" parent="6P1YGiJbpuXQbBjJBhPg-49" vertex="1">
          <mxGeometry x="30" width="222" height="20" as="geometry">
            <mxRectangle width="222" height="20" as="alternateBounds" />
          </mxGeometry>
        </mxCell>
        <mxCell id="6P1YGiJbpuXQbBjJBhPg-52" value="" style="shape=tableRow;horizontal=0;startSize=0;swimlaneHead=0;swimlaneBody=0;fillColor=none;collapsible=0;dropTarget=0;points=[[0,0.5],[1,0.5]];portConstraint=eastwest;top=0;left=0;right=0;bottom=0;html=1;" parent="lmLOYv4weuVmKFbOApRG-37" vertex="1">
          <mxGeometry y="142" width="252" height="28" as="geometry" />
        </mxCell>
        <mxCell id="6P1YGiJbpuXQbBjJBhPg-53" value="" style="shape=partialRectangle;connectable=0;fillColor=none;top=0;left=0;bottom=0;right=0;editable=1;overflow=hidden;html=1;whiteSpace=wrap;" parent="6P1YGiJbpuXQbBjJBhPg-52" vertex="1">
          <mxGeometry width="30" height="28" as="geometry">
            <mxRectangle width="30" height="28" as="alternateBounds" />
          </mxGeometry>
        </mxCell>
        <mxCell id="6P1YGiJbpuXQbBjJBhPg-54" value="occupation" style="shape=partialRectangle;connectable=0;fillColor=none;top=0;left=0;bottom=0;right=0;align=left;spacingLeft=6;overflow=hidden;html=1;whiteSpace=wrap;fontSize=16;" parent="6P1YGiJbpuXQbBjJBhPg-52" vertex="1">
          <mxGeometry x="30" width="222" height="28" as="geometry">
            <mxRectangle width="222" height="28" as="alternateBounds" />
          </mxGeometry>
        </mxCell>
        <mxCell id="QlY77pYCZZIg4fbUSBKE-1" value="" style="shape=tableRow;horizontal=0;startSize=0;swimlaneHead=0;swimlaneBody=0;fillColor=none;collapsible=0;dropTarget=0;points=[[0,0.5],[1,0.5]];portConstraint=eastwest;top=0;left=0;right=0;bottom=0;" parent="lmLOYv4weuVmKFbOApRG-37" vertex="1">
          <mxGeometry y="170" width="252" height="24" as="geometry" />
        </mxCell>
        <mxCell id="QlY77pYCZZIg4fbUSBKE-2" value="" style="shape=partialRectangle;connectable=0;fillColor=none;top=0;left=0;bottom=0;right=0;editable=1;overflow=hidden;whiteSpace=wrap;html=1;" parent="QlY77pYCZZIg4fbUSBKE-1" vertex="1">
          <mxGeometry width="30" height="24" as="geometry">
            <mxRectangle width="30" height="24" as="alternateBounds" />
          </mxGeometry>
        </mxCell>
        <mxCell id="QlY77pYCZZIg4fbUSBKE-3" value="&lt;span style=&quot;font-size: 16px;&quot;&gt;password&lt;/span&gt;" style="shape=partialRectangle;connectable=0;fillColor=none;top=0;left=0;bottom=0;right=0;align=left;spacingLeft=6;overflow=hidden;whiteSpace=wrap;html=1;" parent="QlY77pYCZZIg4fbUSBKE-1" vertex="1">
          <mxGeometry x="30" width="222" height="24" as="geometry">
            <mxRectangle width="222" height="24" as="alternateBounds" />
          </mxGeometry>
        </mxCell>
        <mxCell id="EGp386n-PK-oxdC0ir5t-1" style="edgeStyle=orthogonalEdgeStyle;rounded=0;orthogonalLoop=1;jettySize=auto;html=1;exitX=1;exitY=0.5;exitDx=0;exitDy=0;" edge="1" parent="lmLOYv4weuVmKFbOApRG-37" source="6P1YGiJbpuXQbBjJBhPg-49" target="6P1YGiJbpuXQbBjJBhPg-49">
          <mxGeometry relative="1" as="geometry" />
        </mxCell>
        <mxCell id="PcMSirVJnc6Lr53QsFWf-15" value="&lt;font style=&quot;font-size: 18px;&quot;&gt;SocialMediaProfile&lt;/font&gt;" style="shape=table;startSize=30;container=1;collapsible=1;childLayout=tableLayout;fixedRows=1;rowLines=0;fontStyle=1;align=center;resizeLast=1;html=1;whiteSpace=wrap;" parent="1" vertex="1">
          <mxGeometry x="-924" y="660" width="228" height="110" as="geometry" />
        </mxCell>
        <mxCell id="PcMSirVJnc6Lr53QsFWf-16" value="" style="shape=tableRow;horizontal=0;startSize=0;swimlaneHead=0;swimlaneBody=0;fillColor=none;collapsible=0;dropTarget=0;points=[[0,0.5],[1,0.5]];portConstraint=eastwest;top=0;left=0;right=0;bottom=0;html=1;" parent="PcMSirVJnc6Lr53QsFWf-15" vertex="1">
          <mxGeometry y="30" width="228" height="20" as="geometry" />
        </mxCell>
        <mxCell id="PcMSirVJnc6Lr53QsFWf-17" value="&lt;font style=&quot;font-size: 16px;&quot;&gt;PK&lt;/font&gt;" style="shape=partialRectangle;connectable=0;fillColor=none;top=0;left=0;bottom=0;right=0;fontStyle=1;overflow=hidden;html=1;whiteSpace=wrap;" parent="PcMSirVJnc6Lr53QsFWf-16" vertex="1">
          <mxGeometry width="60" height="20" as="geometry">
            <mxRectangle width="60" height="20" as="alternateBounds" />
          </mxGeometry>
        </mxCell>
        <mxCell id="PcMSirVJnc6Lr53QsFWf-18" value="socialMediaID" style="shape=partialRectangle;connectable=0;fillColor=none;top=0;left=0;bottom=0;right=0;align=left;spacingLeft=6;fontStyle=5;overflow=hidden;html=1;whiteSpace=wrap;fontSize=16;" parent="PcMSirVJnc6Lr53QsFWf-16" vertex="1">
          <mxGeometry x="60" width="168" height="20" as="geometry">
            <mxRectangle width="168" height="20" as="alternateBounds" />
          </mxGeometry>
        </mxCell>
        <mxCell id="PcMSirVJnc6Lr53QsFWf-22" value="" style="shape=tableRow;horizontal=0;startSize=0;swimlaneHead=0;swimlaneBody=0;fillColor=none;collapsible=0;dropTarget=0;points=[[0,0.5],[1,0.5]];portConstraint=eastwest;top=0;left=0;right=0;bottom=0;html=1;" parent="PcMSirVJnc6Lr53QsFWf-15" vertex="1">
          <mxGeometry y="50" width="228" height="30" as="geometry" />
        </mxCell>
        <mxCell id="PcMSirVJnc6Lr53QsFWf-23" value="&lt;font style=&quot;font-size: 16px;&quot;&gt;FK&lt;/font&gt;" style="shape=partialRectangle;connectable=0;fillColor=none;top=0;left=0;bottom=0;right=0;editable=1;overflow=hidden;html=1;whiteSpace=wrap;" parent="PcMSirVJnc6Lr53QsFWf-22" vertex="1">
          <mxGeometry width="60" height="30" as="geometry">
            <mxRectangle width="60" height="30" as="alternateBounds" />
          </mxGeometry>
        </mxCell>
        <mxCell id="PcMSirVJnc6Lr53QsFWf-24" value="&lt;span style=&quot;font-weight: 700; text-decoration-line: underline;&quot;&gt;candidate_ID&lt;/span&gt;" style="shape=partialRectangle;connectable=0;fillColor=none;top=0;left=0;bottom=0;right=0;align=left;spacingLeft=6;overflow=hidden;html=1;whiteSpace=wrap;fontSize=16;" parent="PcMSirVJnc6Lr53QsFWf-22" vertex="1">
          <mxGeometry x="60" width="168" height="30" as="geometry">
            <mxRectangle width="168" height="30" as="alternateBounds" />
          </mxGeometry>
        </mxCell>
        <mxCell id="PcMSirVJnc6Lr53QsFWf-25" value="" style="shape=tableRow;horizontal=0;startSize=0;swimlaneHead=0;swimlaneBody=0;fillColor=none;collapsible=0;dropTarget=0;points=[[0,0.5],[1,0.5]];portConstraint=eastwest;top=0;left=0;right=0;bottom=0;html=1;" parent="PcMSirVJnc6Lr53QsFWf-15" vertex="1">
          <mxGeometry y="80" width="228" height="30" as="geometry" />
        </mxCell>
        <mxCell id="PcMSirVJnc6Lr53QsFWf-26" value="&lt;font style=&quot;font-size: 16px;&quot;&gt;FK&lt;/font&gt;" style="shape=partialRectangle;connectable=0;fillColor=none;top=0;left=0;bottom=0;right=0;editable=1;overflow=hidden;html=1;whiteSpace=wrap;" parent="PcMSirVJnc6Lr53QsFWf-25" vertex="1">
          <mxGeometry width="60" height="30" as="geometry">
            <mxRectangle width="60" height="30" as="alternateBounds" />
          </mxGeometry>
        </mxCell>
        <mxCell id="PcMSirVJnc6Lr53QsFWf-27" value="&lt;span style=&quot;font-size: 16px; font-weight: 700; text-decoration-line: underline;&quot;&gt;recruiter_ID&lt;/span&gt;" style="shape=partialRectangle;connectable=0;fillColor=none;top=0;left=0;bottom=0;right=0;align=left;spacingLeft=6;overflow=hidden;html=1;whiteSpace=wrap;" parent="PcMSirVJnc6Lr53QsFWf-25" vertex="1">
          <mxGeometry x="60" width="168" height="30" as="geometry">
            <mxRectangle width="168" height="30" as="alternateBounds" />
          </mxGeometry>
        </mxCell>
        <mxCell id="PcMSirVJnc6Lr53QsFWf-36" value="" style="fontSize=12;html=1;endArrow=ERmandOne;rounded=0;endSize=14;startSize=14;entryX=0.475;entryY=0.982;entryDx=0;entryDy=0;entryPerimeter=0;" parent="1" target="PcMSirVJnc6Lr53QsFWf-25" edge="1">
          <mxGeometry width="100" height="100" relative="1" as="geometry">
            <mxPoint x="-816" y="924" as="sourcePoint" />
            <mxPoint x="-816" y="768" as="targetPoint" />
            <Array as="points" />
          </mxGeometry>
        </mxCell>
        <mxCell id="PcMSirVJnc6Lr53QsFWf-84" value="has" style="edgeLabel;html=1;align=center;verticalAlign=middle;resizable=0;points=[];fontSize=18;" parent="PcMSirVJnc6Lr53QsFWf-36" vertex="1" connectable="0">
          <mxGeometry x="-0.1247" y="1" relative="1" as="geometry">
            <mxPoint y="1" as="offset" />
          </mxGeometry>
        </mxCell>
        <mxCell id="PcMSirVJnc6Lr53QsFWf-38" value="" style="edgeStyle=orthogonalEdgeStyle;fontSize=12;html=1;endArrow=ERmany;startArrow=ERmany;rounded=0;endSize=14;startSize=14;" parent="1" edge="1">
          <mxGeometry width="100" height="100" relative="1" as="geometry">
            <mxPoint x="-162" y="984" as="sourcePoint" />
            <mxPoint x="-1476" y="984" as="targetPoint" />
            <Array as="points">
              <mxPoint x="-162" y="924" />
              <mxPoint x="-1476" y="925" />
            </Array>
          </mxGeometry>
        </mxCell>
        <mxCell id="PcMSirVJnc6Lr53QsFWf-45" value="" style="fontSize=12;html=1;endArrow=ERmany;rounded=0;entryX=0.5;entryY=0;entryDx=0;entryDy=0;endSize=14;startSize=14;" parent="1" target="b6UDOTv8NxBABLAUBQvk-17" edge="1">
          <mxGeometry width="100" height="100" relative="1" as="geometry">
            <mxPoint x="-1026" y="924" as="sourcePoint" />
            <mxPoint x="-1148" y="864" as="targetPoint" />
          </mxGeometry>
        </mxCell>
        <mxCell id="PcMSirVJnc6Lr53QsFWf-46" value="" style="fontSize=12;html=1;endArrow=ERmany;rounded=0;entryX=0.623;entryY=0.002;entryDx=0;entryDy=0;endSize=14;startSize=14;entryPerimeter=0;" parent="1" edge="1">
          <mxGeometry width="100" height="100" relative="1" as="geometry">
            <mxPoint x="-576" y="923.66" as="sourcePoint" />
            <mxPoint x="-575.0039999999999" y="977.0020000000001" as="targetPoint" />
          </mxGeometry>
        </mxCell>
        <mxCell id="PcMSirVJnc6Lr53QsFWf-52" value="" style="edgeStyle=orthogonalEdgeStyle;fontSize=12;html=1;endArrow=ERmandOne;startArrow=ERmandOne;rounded=0;entryX=-0.008;entryY=-0.195;entryDx=0;entryDy=0;endSize=14;startSize=14;entryPerimeter=0;" parent="1" target="PcMSirVJnc6Lr53QsFWf-22" edge="1">
          <mxGeometry width="100" height="100" relative="1" as="geometry">
            <mxPoint x="-1272" y="624" as="sourcePoint" />
            <mxPoint x="-1004" y="372" as="targetPoint" />
          </mxGeometry>
        </mxCell>
        <mxCell id="PcMSirVJnc6Lr53QsFWf-82" value="has" style="edgeLabel;html=1;align=center;verticalAlign=middle;resizable=0;points=[];fontSize=18;" parent="PcMSirVJnc6Lr53QsFWf-52" vertex="1" connectable="0">
          <mxGeometry x="0.1578" y="3" relative="1" as="geometry">
            <mxPoint as="offset" />
          </mxGeometry>
        </mxCell>
        <mxCell id="PcMSirVJnc6Lr53QsFWf-53" value="" style="edgeStyle=orthogonalEdgeStyle;fontSize=12;html=1;endArrow=ERmandOne;startArrow=ERmandOne;rounded=0;endSize=14;startSize=14;entryX=0.5;entryY=1;entryDx=0;entryDy=0;" parent="1" edge="1" target="lmLOYv4weuVmKFbOApRG-37">
          <mxGeometry width="100" height="100" relative="1" as="geometry">
            <mxPoint x="-696" y="713" as="sourcePoint" />
            <mxPoint x="-384" y="612" as="targetPoint" />
          </mxGeometry>
        </mxCell>
        <mxCell id="PcMSirVJnc6Lr53QsFWf-54" value="&lt;font style=&quot;font-size: 18px;&quot;&gt;Searches&lt;/font&gt;" style="edgeLabel;html=1;align=center;verticalAlign=middle;resizable=0;points=[];fontSize=18;" parent="PcMSirVJnc6Lr53QsFWf-53" vertex="1" connectable="0">
          <mxGeometry x="-0.2654" y="-4" relative="1" as="geometry">
            <mxPoint x="1" as="offset" />
          </mxGeometry>
        </mxCell>
        <mxCell id="PcMSirVJnc6Lr53QsFWf-58" value="Candidate" style="shape=table;startSize=30;container=1;collapsible=1;childLayout=tableLayout;fixedRows=1;rowLines=0;fontStyle=1;align=center;resizeLast=1;html=1;whiteSpace=wrap;fontSize=18;" parent="1" vertex="1">
          <mxGeometry x="-1354" y="372" width="214" height="250" as="geometry" />
        </mxCell>
        <mxCell id="PcMSirVJnc6Lr53QsFWf-59" value="" style="shape=tableRow;horizontal=0;startSize=0;swimlaneHead=0;swimlaneBody=0;fillColor=none;collapsible=0;dropTarget=0;points=[[0,0.5],[1,0.5]];portConstraint=eastwest;top=0;left=0;right=0;bottom=0;html=1;fontSize=16;" parent="PcMSirVJnc6Lr53QsFWf-58" vertex="1">
          <mxGeometry y="30" width="214" height="30" as="geometry" />
        </mxCell>
        <mxCell id="PcMSirVJnc6Lr53QsFWf-60" value="PK" style="shape=partialRectangle;connectable=0;fillColor=none;top=0;left=0;bottom=0;right=0;fontStyle=1;overflow=hidden;html=1;whiteSpace=wrap;fontSize=16;" parent="PcMSirVJnc6Lr53QsFWf-59" vertex="1">
          <mxGeometry width="60" height="30" as="geometry">
            <mxRectangle width="60" height="30" as="alternateBounds" />
          </mxGeometry>
        </mxCell>
        <mxCell id="PcMSirVJnc6Lr53QsFWf-61" value="candidate_ID" style="shape=partialRectangle;connectable=0;fillColor=none;top=0;left=0;bottom=0;right=0;align=left;spacingLeft=6;fontStyle=5;overflow=hidden;html=1;whiteSpace=wrap;fontSize=16;" parent="PcMSirVJnc6Lr53QsFWf-59" vertex="1">
          <mxGeometry x="60" width="154" height="30" as="geometry">
            <mxRectangle width="154" height="30" as="alternateBounds" />
          </mxGeometry>
        </mxCell>
        <mxCell id="EGp386n-PK-oxdC0ir5t-25" style="shape=tableRow;horizontal=0;startSize=0;swimlaneHead=0;swimlaneBody=0;fillColor=none;collapsible=0;dropTarget=0;points=[[0,0.5],[1,0.5]];portConstraint=eastwest;top=0;left=0;right=0;bottom=0;html=1;fontSize=16;" vertex="1" parent="PcMSirVJnc6Lr53QsFWf-58">
          <mxGeometry y="60" width="214" height="30" as="geometry" />
        </mxCell>
        <mxCell id="EGp386n-PK-oxdC0ir5t-26" value="FK" style="shape=partialRectangle;connectable=0;fillColor=none;top=0;left=0;bottom=0;right=0;fontStyle=1;overflow=hidden;html=1;whiteSpace=wrap;fontSize=16;" vertex="1" parent="EGp386n-PK-oxdC0ir5t-25">
          <mxGeometry width="60" height="30" as="geometry">
            <mxRectangle width="60" height="30" as="alternateBounds" />
          </mxGeometry>
        </mxCell>
        <mxCell id="EGp386n-PK-oxdC0ir5t-27" value="applicant_ID" style="shape=partialRectangle;connectable=0;fillColor=none;top=0;left=0;bottom=0;right=0;align=left;spacingLeft=6;fontStyle=5;overflow=hidden;html=1;whiteSpace=wrap;fontSize=16;" vertex="1" parent="EGp386n-PK-oxdC0ir5t-25">
          <mxGeometry x="60" width="154" height="30" as="geometry">
            <mxRectangle width="154" height="30" as="alternateBounds" />
          </mxGeometry>
        </mxCell>
        <mxCell id="PcMSirVJnc6Lr53QsFWf-62" value="" style="shape=tableRow;horizontal=0;startSize=0;swimlaneHead=0;swimlaneBody=0;fillColor=none;collapsible=0;dropTarget=0;points=[[0,0.5],[1,0.5]];portConstraint=eastwest;top=0;left=0;right=0;bottom=1;html=1;" parent="PcMSirVJnc6Lr53QsFWf-58" vertex="1">
          <mxGeometry y="90" width="214" height="40" as="geometry" />
        </mxCell>
        <mxCell id="PcMSirVJnc6Lr53QsFWf-63" value="FK" style="shape=partialRectangle;connectable=0;fillColor=none;top=0;left=0;bottom=0;right=0;fontStyle=1;overflow=hidden;html=1;whiteSpace=wrap;fontSize=16;" parent="PcMSirVJnc6Lr53QsFWf-62" vertex="1">
          <mxGeometry width="60" height="40" as="geometry">
            <mxRectangle width="60" height="40" as="alternateBounds" />
          </mxGeometry>
        </mxCell>
        <mxCell id="PcMSirVJnc6Lr53QsFWf-64" value="recruiter_ID" style="shape=partialRectangle;connectable=0;fillColor=none;top=0;left=0;bottom=0;right=0;align=left;spacingLeft=6;fontStyle=5;overflow=hidden;html=1;whiteSpace=wrap;fontSize=16;" parent="PcMSirVJnc6Lr53QsFWf-62" vertex="1">
          <mxGeometry x="60" width="154" height="40" as="geometry">
            <mxRectangle width="154" height="40" as="alternateBounds" />
          </mxGeometry>
        </mxCell>
        <mxCell id="PcMSirVJnc6Lr53QsFWf-65" value="" style="shape=tableRow;horizontal=0;startSize=0;swimlaneHead=0;swimlaneBody=0;fillColor=none;collapsible=0;dropTarget=0;points=[[0,0.5],[1,0.5]];portConstraint=eastwest;top=0;left=0;right=0;bottom=0;html=1;" parent="PcMSirVJnc6Lr53QsFWf-58" vertex="1">
          <mxGeometry y="130" width="214" height="20" as="geometry" />
        </mxCell>
        <mxCell id="PcMSirVJnc6Lr53QsFWf-66" value="" style="shape=partialRectangle;connectable=0;fillColor=none;top=0;left=0;bottom=0;right=0;editable=1;overflow=hidden;html=1;whiteSpace=wrap;" parent="PcMSirVJnc6Lr53QsFWf-65" vertex="1">
          <mxGeometry width="60" height="20" as="geometry">
            <mxRectangle width="60" height="20" as="alternateBounds" />
          </mxGeometry>
        </mxCell>
        <mxCell id="PcMSirVJnc6Lr53QsFWf-67" value="first_name" style="shape=partialRectangle;connectable=0;fillColor=none;top=0;left=0;bottom=0;right=0;align=left;spacingLeft=6;overflow=hidden;html=1;whiteSpace=wrap;fontSize=16;" parent="PcMSirVJnc6Lr53QsFWf-65" vertex="1">
          <mxGeometry x="60" width="154" height="20" as="geometry">
            <mxRectangle width="154" height="20" as="alternateBounds" />
          </mxGeometry>
        </mxCell>
        <mxCell id="PcMSirVJnc6Lr53QsFWf-68" value="" style="shape=tableRow;horizontal=0;startSize=0;swimlaneHead=0;swimlaneBody=0;fillColor=none;collapsible=0;dropTarget=0;points=[[0,0.5],[1,0.5]];portConstraint=eastwest;top=0;left=0;right=0;bottom=0;html=1;" parent="PcMSirVJnc6Lr53QsFWf-58" vertex="1">
          <mxGeometry y="150" width="214" height="24" as="geometry" />
        </mxCell>
        <mxCell id="PcMSirVJnc6Lr53QsFWf-69" value="" style="shape=partialRectangle;connectable=0;fillColor=none;top=0;left=0;bottom=0;right=0;editable=1;overflow=hidden;html=1;whiteSpace=wrap;" parent="PcMSirVJnc6Lr53QsFWf-68" vertex="1">
          <mxGeometry width="60" height="24" as="geometry">
            <mxRectangle width="60" height="24" as="alternateBounds" />
          </mxGeometry>
        </mxCell>
        <mxCell id="PcMSirVJnc6Lr53QsFWf-70" value="last_name" style="shape=partialRectangle;connectable=0;fillColor=none;top=0;left=0;bottom=0;right=0;align=left;spacingLeft=6;overflow=hidden;html=1;whiteSpace=wrap;fontSize=16;" parent="PcMSirVJnc6Lr53QsFWf-68" vertex="1">
          <mxGeometry x="60" width="154" height="24" as="geometry">
            <mxRectangle width="154" height="24" as="alternateBounds" />
          </mxGeometry>
        </mxCell>
        <mxCell id="PcMSirVJnc6Lr53QsFWf-71" value="" style="shape=tableRow;horizontal=0;startSize=0;swimlaneHead=0;swimlaneBody=0;fillColor=none;collapsible=0;dropTarget=0;points=[[0,0.5],[1,0.5]];portConstraint=eastwest;top=0;left=0;right=0;bottom=0;html=1;" parent="PcMSirVJnc6Lr53QsFWf-58" vertex="1">
          <mxGeometry y="174" width="214" height="20" as="geometry" />
        </mxCell>
        <mxCell id="PcMSirVJnc6Lr53QsFWf-72" value="" style="shape=partialRectangle;connectable=0;fillColor=none;top=0;left=0;bottom=0;right=0;editable=1;overflow=hidden;html=1;whiteSpace=wrap;" parent="PcMSirVJnc6Lr53QsFWf-71" vertex="1">
          <mxGeometry width="60" height="20" as="geometry">
            <mxRectangle width="60" height="20" as="alternateBounds" />
          </mxGeometry>
        </mxCell>
        <mxCell id="PcMSirVJnc6Lr53QsFWf-73" value="cell_no" style="shape=partialRectangle;connectable=0;fillColor=none;top=0;left=0;bottom=0;right=0;align=left;spacingLeft=6;overflow=hidden;html=1;whiteSpace=wrap;fontSize=16;" parent="PcMSirVJnc6Lr53QsFWf-71" vertex="1">
          <mxGeometry x="60" width="154" height="20" as="geometry">
            <mxRectangle width="154" height="20" as="alternateBounds" />
          </mxGeometry>
        </mxCell>
        <mxCell id="PcMSirVJnc6Lr53QsFWf-74" value="" style="shape=tableRow;horizontal=0;startSize=0;swimlaneHead=0;swimlaneBody=0;fillColor=none;collapsible=0;dropTarget=0;points=[[0,0.5],[1,0.5]];portConstraint=eastwest;top=0;left=0;right=0;bottom=0;html=1;" parent="PcMSirVJnc6Lr53QsFWf-58" vertex="1">
          <mxGeometry y="194" width="214" height="20" as="geometry" />
        </mxCell>
        <mxCell id="PcMSirVJnc6Lr53QsFWf-75" value="" style="shape=partialRectangle;connectable=0;fillColor=none;top=0;left=0;bottom=0;right=0;editable=1;overflow=hidden;html=1;whiteSpace=wrap;" parent="PcMSirVJnc6Lr53QsFWf-74" vertex="1">
          <mxGeometry width="60" height="20" as="geometry">
            <mxRectangle width="60" height="20" as="alternateBounds" />
          </mxGeometry>
        </mxCell>
        <mxCell id="PcMSirVJnc6Lr53QsFWf-76" value="email" style="shape=partialRectangle;connectable=0;fillColor=none;top=0;left=0;bottom=0;right=0;align=left;spacingLeft=6;overflow=hidden;html=1;whiteSpace=wrap;fontSize=16;" parent="PcMSirVJnc6Lr53QsFWf-74" vertex="1">
          <mxGeometry x="60" width="154" height="20" as="geometry">
            <mxRectangle width="154" height="20" as="alternateBounds" />
          </mxGeometry>
        </mxCell>
        <mxCell id="PcMSirVJnc6Lr53QsFWf-77" value="" style="shape=tableRow;horizontal=0;startSize=0;swimlaneHead=0;swimlaneBody=0;fillColor=none;collapsible=0;dropTarget=0;points=[[0,0.5],[1,0.5]];portConstraint=eastwest;top=0;left=0;right=0;bottom=0;html=1;" parent="PcMSirVJnc6Lr53QsFWf-58" vertex="1">
          <mxGeometry y="214" width="214" height="36" as="geometry" />
        </mxCell>
        <mxCell id="PcMSirVJnc6Lr53QsFWf-78" value="&lt;span style=&quot;color: rgba(0, 0, 0, 0); font-family: monospace; font-size: 0px; text-align: start; text-wrap: nowrap;&quot;&gt;%3CmxGraphModel%3E%3Croot%3E%3CmxCell%20id%3D%220%22%2F%3E%3CmxCell%20id%3D%221%22%20parent%3D%220%22%2F%3E%3CmxCell%20id%3D%222%22%20value%3D%22%22%20style%3D%22shape%3DtableRow%3Bhorizontal%3D0%3BstartSize%3D0%3BswimlaneHead%3D0%3BswimlaneBody%3D0%3BfillColor%3Dnone%3Bcollapsible%3D0%3BdropTarget%3D0%3Bpoints%3D%5B%5B0%2C0.5%5D%2C%5B1%2C0.5%5D%5D%3BportConstraint%3Deastwest%3Btop%3D0%3Bleft%3D0%3Bright%3D0%3Bbottom%3D1%3Bhtml%3D1%3B%22%20vertex%3D%221%22%20parent%3D%221%22%3E%3CmxGeometry%20x%3D%22-528%22%20y%3D%22432%22%20width%3D%22252%22%20height%3D%2224%22%20as%3D%22geometry%22%2F%3E%3C%2FmxCell%3E%3CmxCell%20id%3D%223%22%20value%3D%22FK%22%20style%3D%22shape%3DpartialRectangle%3Bconnectable%3D0%3BfillColor%3Dnone%3Btop%3D0%3Bleft%3D0%3Bbottom%3D0%3Bright%3D0%3BfontStyle%3D1%3Boverflow%3Dhidden%3Bhtml%3D1%3BwhiteSpace%3Dwrap%3BfontSize%3D16%3B%22%20vertex%3D%221%22%20parent%3D%222%22%3E%3CmxGeometry%20width%3D%2230%22%20height%3D%2224%22%20as%3D%22geometry%22%3E%3CmxRectangle%20width%3D%2230%22%20height%3D%2224%22%20as%3D%22alternateBounds%22%2F%3E%3C%2FmxGeometry%3E%3C%2FmxCell%3E%3CmxCell%20id%3D%224%22%20value%3D%22applicant_ID%22%20style%3D%22shape%3DpartialRectangle%3Bconnectable%3D0%3BfillColor%3Dnone%3Btop%3D0%3Bleft%3D0%3Bbottom%3D0%3Bright%3D0%3Balign%3Dleft%3BspacingLeft%3D6%3BfontStyle%3D5%3Boverflow%3Dhidden%3Bhtml%3D1%3BwhiteSpace%3Dwrap%3BfontSize%3D16%3B%22%20vertex%3D%221%22%20parent%3D%222%22%3E%3CmxGeometry%20x%3D%2230%22%20width%3D%22222%22%20height%3D%2224%22%20as%3D%22geometry%22%3E%3CmxRectangle%20width%3D%22222%22%20height%3D%2224%22%20as%3D%22alternateBounds%22%2F%3E%3C%2FmxGeometry%3E%3C%2FmxCell%3E%3C%2Froot%3E%3C%2FmxGraphModel%3E&lt;/span&gt;&lt;span style=&quot;color: rgba(0, 0, 0, 0); font-family: monospace; font-size: 0px; text-align: start; text-wrap: nowrap;&quot;&gt;%3CmxGraphModel%3E%3Croot%3E%3CmxCell%20id%3D%220%22%2F%3E%3CmxCell%20id%3D%221%22%20parent%3D%220%22%2F%3E%3CmxCell%20id%3D%222%22%20value%3D%22%22%20style%3D%22shape%3DtableRow%3Bhorizontal%3D0%3BstartSize%3D0%3BswimlaneHead%3D0%3BswimlaneBody%3D0%3BfillColor%3Dnone%3Bcollapsible%3D0%3BdropTarget%3D0%3Bpoints%3D%5B%5B0%2C0.5%5D%2C%5B1%2C0.5%5D%5D%3BportConstraint%3Deastwest%3Btop%3D0%3Bleft%3D0%3Bright%3D0%3Bbottom%3D1%3Bhtml%3D1%3B%22%20vertex%3D%221%22%20parent%3D%221%22%3E%3CmxGeometry%20x%3D%22-528%22%20y%3D%22432%22%20width%3D%22252%22%20height%3D%2224%22%20as%3D%22geometry%22%2F%3E%3C%2FmxCell%3E%3CmxCell%20id%3D%223%22%20value%3D%22FK%22%20style%3D%22shape%3DpartialRectangle%3Bconnectable%3D0%3BfillColor%3Dnone%3Btop%3D0%3Bleft%3D0%3Bbottom%3D0%3Bright%3D0%3BfontStyle%3D1%3Boverflow%3Dhidden%3Bhtml%3D1%3BwhiteSpace%3Dwrap%3BfontSize%3D16%3B%22%20vertex%3D%221%22%20parent%3D%222%22%3E%3CmxGeometry%20width%3D%2230%22%20height%3D%2224%22%20as%3D%22geometry%22%3E%3CmxRectangle%20width%3D%2230%22%20height%3D%2224%22%20as%3D%22alternateBounds%22%2F%3E%3C%2FmxGeometry%3E%3C%2FmxCell%3E%3CmxCell%20id%3D%224%22%20value%3D%22applicant_ID%22%20style%3D%22shape%3DpartialRectangle%3Bconnectable%3D0%3BfillColor%3Dnone%3Btop%3D0%3Bleft%3D0%3Bbottom%3D0%3Bright%3D0%3Balign%3Dleft%3BspacingLeft%3D6%3BfontStyle%3D5%3Boverflow%3Dhidden%3Bhtml%3D1%3BwhiteSpace%3Dwrap%3BfontSize%3D16%3B%22%20vertex%3D%221%22%20parent%3D%222%22%3E%3CmxGeometry%20x%3D%2230%22%20width%3D%22222%22%20height%3D%2224%22%20as%3D%22geometry%22%3E%3CmxRectangle%20width%3D%22222%22%20height%3D%2224%22%20as%3D%22alternateBounds%22%2F%3E%3C%2FmxGeometry%3E%3C%2FmxCell%3E%3C%2Froot%3E%3C%2FmxGraphModel%3E&lt;/span&gt;" style="shape=partialRectangle;connectable=0;fillColor=none;top=0;left=0;bottom=0;right=0;editable=1;overflow=hidden;html=1;whiteSpace=wrap;" parent="PcMSirVJnc6Lr53QsFWf-77" vertex="1">
          <mxGeometry width="60" height="36" as="geometry">
            <mxRectangle width="60" height="36" as="alternateBounds" />
          </mxGeometry>
        </mxCell>
        <mxCell id="PcMSirVJnc6Lr53QsFWf-79" value="occupation" style="shape=partialRectangle;connectable=0;fillColor=none;top=0;left=0;bottom=0;right=0;align=left;spacingLeft=6;overflow=hidden;html=1;whiteSpace=wrap;fontSize=16;" parent="PcMSirVJnc6Lr53QsFWf-77" vertex="1">
          <mxGeometry x="60" width="154" height="36" as="geometry">
            <mxRectangle width="154" height="36" as="alternateBounds" />
          </mxGeometry>
        </mxCell>
        <mxCell id="PcMSirVJnc6Lr53QsFWf-81" value="" style="fontSize=12;html=1;endArrow=ERoneToMany;startArrow=ERmandOne;rounded=0;endSize=14;startSize=14;entryX=1;entryY=0.5;entryDx=0;entryDy=0;" parent="1" edge="1" target="PcMSirVJnc6Lr53QsFWf-65">
          <mxGeometry width="100" height="100" relative="1" as="geometry">
            <mxPoint x="-529" y="516" as="sourcePoint" />
            <mxPoint x="-1116" y="516" as="targetPoint" />
          </mxGeometry>
        </mxCell>
        <mxCell id="PcMSirVJnc6Lr53QsFWf-83" value="captures" style="edgeLabel;html=1;align=center;verticalAlign=middle;resizable=0;points=[];fontSize=18;" parent="PcMSirVJnc6Lr53QsFWf-81" vertex="1" connectable="0">
          <mxGeometry x="0.0748" y="-3" relative="1" as="geometry">
            <mxPoint as="offset" />
          </mxGeometry>
        </mxCell>
        <mxCell id="6P1YGiJbpuXQbBjJBhPg-1" value="Applicant" style="shape=table;startSize=30;container=1;collapsible=1;childLayout=tableLayout;fixedRows=1;rowLines=0;fontStyle=1;align=center;resizeLast=1;html=1;whiteSpace=wrap;fontSize=18;" parent="1" vertex="1">
          <mxGeometry x="-852" y="36" width="214" height="240" as="geometry" />
        </mxCell>
        <mxCell id="6P1YGiJbpuXQbBjJBhPg-2" value="" style="shape=tableRow;horizontal=0;startSize=0;swimlaneHead=0;swimlaneBody=0;fillColor=none;collapsible=0;dropTarget=0;points=[[0,0.5],[1,0.5]];portConstraint=eastwest;top=0;left=0;right=0;bottom=0;html=1;fontSize=16;" parent="6P1YGiJbpuXQbBjJBhPg-1" vertex="1">
          <mxGeometry y="30" width="214" height="30" as="geometry" />
        </mxCell>
        <mxCell id="6P1YGiJbpuXQbBjJBhPg-3" value="PK" style="shape=partialRectangle;connectable=0;fillColor=none;top=0;left=0;bottom=0;right=0;fontStyle=1;overflow=hidden;html=1;whiteSpace=wrap;fontSize=16;" parent="6P1YGiJbpuXQbBjJBhPg-2" vertex="1">
          <mxGeometry width="60" height="30" as="geometry">
            <mxRectangle width="60" height="30" as="alternateBounds" />
          </mxGeometry>
        </mxCell>
        <mxCell id="6P1YGiJbpuXQbBjJBhPg-4" value="applicant_ID" style="shape=partialRectangle;connectable=0;fillColor=none;top=0;left=0;bottom=0;right=0;align=left;spacingLeft=6;fontStyle=5;overflow=hidden;html=1;whiteSpace=wrap;fontSize=16;" parent="6P1YGiJbpuXQbBjJBhPg-2" vertex="1">
          <mxGeometry x="60" width="154" height="30" as="geometry">
            <mxRectangle width="154" height="30" as="alternateBounds" />
          </mxGeometry>
        </mxCell>
        <mxCell id="6P1YGiJbpuXQbBjJBhPg-5" value="" style="shape=tableRow;horizontal=0;startSize=0;swimlaneHead=0;swimlaneBody=0;fillColor=none;collapsible=0;dropTarget=0;points=[[0,0.5],[1,0.5]];portConstraint=eastwest;top=0;left=0;right=0;bottom=1;html=1;" parent="6P1YGiJbpuXQbBjJBhPg-1" vertex="1">
          <mxGeometry y="60" width="214" height="20" as="geometry" />
        </mxCell>
        <mxCell id="6P1YGiJbpuXQbBjJBhPg-6" value="" style="shape=partialRectangle;connectable=0;fillColor=none;top=0;left=0;bottom=0;right=0;fontStyle=1;overflow=hidden;html=1;whiteSpace=wrap;fontSize=16;" parent="6P1YGiJbpuXQbBjJBhPg-5" vertex="1">
          <mxGeometry width="60" height="20" as="geometry">
            <mxRectangle width="60" height="20" as="alternateBounds" />
          </mxGeometry>
        </mxCell>
        <mxCell id="6P1YGiJbpuXQbBjJBhPg-7" value="" style="shape=partialRectangle;connectable=0;fillColor=none;top=0;left=0;bottom=0;right=0;align=left;spacingLeft=6;fontStyle=5;overflow=hidden;html=1;whiteSpace=wrap;fontSize=16;" parent="6P1YGiJbpuXQbBjJBhPg-5" vertex="1">
          <mxGeometry x="60" width="154" height="20" as="geometry">
            <mxRectangle width="154" height="20" as="alternateBounds" />
          </mxGeometry>
        </mxCell>
        <mxCell id="6P1YGiJbpuXQbBjJBhPg-8" value="" style="shape=tableRow;horizontal=0;startSize=0;swimlaneHead=0;swimlaneBody=0;fillColor=none;collapsible=0;dropTarget=0;points=[[0,0.5],[1,0.5]];portConstraint=eastwest;top=0;left=0;right=0;bottom=0;html=1;" parent="6P1YGiJbpuXQbBjJBhPg-1" vertex="1">
          <mxGeometry y="80" width="214" height="20" as="geometry" />
        </mxCell>
        <mxCell id="6P1YGiJbpuXQbBjJBhPg-9" value="" style="shape=partialRectangle;connectable=0;fillColor=none;top=0;left=0;bottom=0;right=0;editable=1;overflow=hidden;html=1;whiteSpace=wrap;" parent="6P1YGiJbpuXQbBjJBhPg-8" vertex="1">
          <mxGeometry width="60" height="20" as="geometry">
            <mxRectangle width="60" height="20" as="alternateBounds" />
          </mxGeometry>
        </mxCell>
        <mxCell id="6P1YGiJbpuXQbBjJBhPg-10" value="first_name" style="shape=partialRectangle;connectable=0;fillColor=none;top=0;left=0;bottom=0;right=0;align=left;spacingLeft=6;overflow=hidden;html=1;whiteSpace=wrap;fontSize=16;" parent="6P1YGiJbpuXQbBjJBhPg-8" vertex="1">
          <mxGeometry x="60" width="154" height="20" as="geometry">
            <mxRectangle width="154" height="20" as="alternateBounds" />
          </mxGeometry>
        </mxCell>
        <mxCell id="6P1YGiJbpuXQbBjJBhPg-11" value="" style="shape=tableRow;horizontal=0;startSize=0;swimlaneHead=0;swimlaneBody=0;fillColor=none;collapsible=0;dropTarget=0;points=[[0,0.5],[1,0.5]];portConstraint=eastwest;top=0;left=0;right=0;bottom=0;html=1;" parent="6P1YGiJbpuXQbBjJBhPg-1" vertex="1">
          <mxGeometry y="100" width="214" height="24" as="geometry" />
        </mxCell>
        <mxCell id="6P1YGiJbpuXQbBjJBhPg-12" value="" style="shape=partialRectangle;connectable=0;fillColor=none;top=0;left=0;bottom=0;right=0;editable=1;overflow=hidden;html=1;whiteSpace=wrap;" parent="6P1YGiJbpuXQbBjJBhPg-11" vertex="1">
          <mxGeometry width="60" height="24" as="geometry">
            <mxRectangle width="60" height="24" as="alternateBounds" />
          </mxGeometry>
        </mxCell>
        <mxCell id="6P1YGiJbpuXQbBjJBhPg-13" value="last_name" style="shape=partialRectangle;connectable=0;fillColor=none;top=0;left=0;bottom=0;right=0;align=left;spacingLeft=6;overflow=hidden;html=1;whiteSpace=wrap;fontSize=16;" parent="6P1YGiJbpuXQbBjJBhPg-11" vertex="1">
          <mxGeometry x="60" width="154" height="24" as="geometry">
            <mxRectangle width="154" height="24" as="alternateBounds" />
          </mxGeometry>
        </mxCell>
        <mxCell id="6P1YGiJbpuXQbBjJBhPg-14" value="" style="shape=tableRow;horizontal=0;startSize=0;swimlaneHead=0;swimlaneBody=0;fillColor=none;collapsible=0;dropTarget=0;points=[[0,0.5],[1,0.5]];portConstraint=eastwest;top=0;left=0;right=0;bottom=0;html=1;" parent="6P1YGiJbpuXQbBjJBhPg-1" vertex="1">
          <mxGeometry y="124" width="214" height="24" as="geometry" />
        </mxCell>
        <mxCell id="6P1YGiJbpuXQbBjJBhPg-15" value="" style="shape=partialRectangle;connectable=0;fillColor=none;top=0;left=0;bottom=0;right=0;editable=1;overflow=hidden;html=1;whiteSpace=wrap;" parent="6P1YGiJbpuXQbBjJBhPg-14" vertex="1">
          <mxGeometry width="60" height="24" as="geometry">
            <mxRectangle width="60" height="24" as="alternateBounds" />
          </mxGeometry>
        </mxCell>
        <mxCell id="6P1YGiJbpuXQbBjJBhPg-16" value="email" style="shape=partialRectangle;connectable=0;fillColor=none;top=0;left=0;bottom=0;right=0;align=left;spacingLeft=6;overflow=hidden;html=1;whiteSpace=wrap;fontSize=16;" parent="6P1YGiJbpuXQbBjJBhPg-14" vertex="1">
          <mxGeometry x="60" width="154" height="24" as="geometry">
            <mxRectangle width="154" height="24" as="alternateBounds" />
          </mxGeometry>
        </mxCell>
        <mxCell id="6P1YGiJbpuXQbBjJBhPg-17" value="" style="shape=tableRow;horizontal=0;startSize=0;swimlaneHead=0;swimlaneBody=0;fillColor=none;collapsible=0;dropTarget=0;points=[[0,0.5],[1,0.5]];portConstraint=eastwest;top=0;left=0;right=0;bottom=0;html=1;" parent="6P1YGiJbpuXQbBjJBhPg-1" vertex="1">
          <mxGeometry y="148" width="214" height="20" as="geometry" />
        </mxCell>
        <mxCell id="6P1YGiJbpuXQbBjJBhPg-18" value="" style="shape=partialRectangle;connectable=0;fillColor=none;top=0;left=0;bottom=0;right=0;editable=1;overflow=hidden;html=1;whiteSpace=wrap;" parent="6P1YGiJbpuXQbBjJBhPg-17" vertex="1">
          <mxGeometry width="60" height="20" as="geometry">
            <mxRectangle width="60" height="20" as="alternateBounds" />
          </mxGeometry>
        </mxCell>
        <mxCell id="6P1YGiJbpuXQbBjJBhPg-19" value="password" style="shape=partialRectangle;connectable=0;fillColor=none;top=0;left=0;bottom=0;right=0;align=left;spacingLeft=6;overflow=hidden;html=1;whiteSpace=wrap;fontSize=16;" parent="6P1YGiJbpuXQbBjJBhPg-17" vertex="1">
          <mxGeometry x="60" width="154" height="20" as="geometry">
            <mxRectangle width="154" height="20" as="alternateBounds" />
          </mxGeometry>
        </mxCell>
        <mxCell id="6P1YGiJbpuXQbBjJBhPg-20" value="" style="shape=tableRow;horizontal=0;startSize=0;swimlaneHead=0;swimlaneBody=0;fillColor=none;collapsible=0;dropTarget=0;points=[[0,0.5],[1,0.5]];portConstraint=eastwest;top=0;left=0;right=0;bottom=0;html=1;" parent="6P1YGiJbpuXQbBjJBhPg-1" vertex="1">
          <mxGeometry y="168" width="214" height="24" as="geometry" />
        </mxCell>
        <mxCell id="6P1YGiJbpuXQbBjJBhPg-21" value="" style="shape=partialRectangle;connectable=0;fillColor=none;top=0;left=0;bottom=0;right=0;editable=1;overflow=hidden;html=1;whiteSpace=wrap;" parent="6P1YGiJbpuXQbBjJBhPg-20" vertex="1">
          <mxGeometry width="60" height="24" as="geometry">
            <mxRectangle width="60" height="24" as="alternateBounds" />
          </mxGeometry>
        </mxCell>
        <mxCell id="6P1YGiJbpuXQbBjJBhPg-22" value="phone" style="shape=partialRectangle;connectable=0;fillColor=none;top=0;left=0;bottom=0;right=0;align=left;spacingLeft=6;overflow=hidden;html=1;whiteSpace=wrap;fontSize=16;" parent="6P1YGiJbpuXQbBjJBhPg-20" vertex="1">
          <mxGeometry x="60" width="154" height="24" as="geometry">
            <mxRectangle width="154" height="24" as="alternateBounds" />
          </mxGeometry>
        </mxCell>
        <mxCell id="6P1YGiJbpuXQbBjJBhPg-60" value="" style="shape=tableRow;horizontal=0;startSize=0;swimlaneHead=0;swimlaneBody=0;fillColor=none;collapsible=0;dropTarget=0;points=[[0,0.5],[1,0.5]];portConstraint=eastwest;top=0;left=0;right=0;bottom=0;html=1;" parent="6P1YGiJbpuXQbBjJBhPg-1" vertex="1">
          <mxGeometry y="192" width="214" height="24" as="geometry" />
        </mxCell>
        <mxCell id="6P1YGiJbpuXQbBjJBhPg-61" value="" style="shape=partialRectangle;connectable=0;fillColor=none;top=0;left=0;bottom=0;right=0;editable=1;overflow=hidden;html=1;whiteSpace=wrap;" parent="6P1YGiJbpuXQbBjJBhPg-60" vertex="1">
          <mxGeometry width="60" height="24" as="geometry">
            <mxRectangle width="60" height="24" as="alternateBounds" />
          </mxGeometry>
        </mxCell>
        <mxCell id="6P1YGiJbpuXQbBjJBhPg-62" value="application_position" style="shape=partialRectangle;connectable=0;fillColor=none;top=0;left=0;bottom=0;right=0;align=left;spacingLeft=6;overflow=hidden;html=1;whiteSpace=wrap;fontSize=16;" parent="6P1YGiJbpuXQbBjJBhPg-60" vertex="1">
          <mxGeometry x="60" width="154" height="24" as="geometry">
            <mxRectangle width="154" height="24" as="alternateBounds" />
          </mxGeometry>
        </mxCell>
        <mxCell id="6P1YGiJbpuXQbBjJBhPg-63" value="" style="shape=tableRow;horizontal=0;startSize=0;swimlaneHead=0;swimlaneBody=0;fillColor=none;collapsible=0;dropTarget=0;points=[[0,0.5],[1,0.5]];portConstraint=eastwest;top=0;left=0;right=0;bottom=0;html=1;" parent="6P1YGiJbpuXQbBjJBhPg-1" vertex="1">
          <mxGeometry y="216" width="214" height="24" as="geometry" />
        </mxCell>
        <mxCell id="6P1YGiJbpuXQbBjJBhPg-64" value="" style="shape=partialRectangle;connectable=0;fillColor=none;top=0;left=0;bottom=0;right=0;editable=1;overflow=hidden;html=1;whiteSpace=wrap;" parent="6P1YGiJbpuXQbBjJBhPg-63" vertex="1">
          <mxGeometry width="60" height="24" as="geometry">
            <mxRectangle width="60" height="24" as="alternateBounds" />
          </mxGeometry>
        </mxCell>
        <mxCell id="6P1YGiJbpuXQbBjJBhPg-65" value="identity_number" style="shape=partialRectangle;connectable=0;fillColor=none;top=0;left=0;bottom=0;right=0;align=left;spacingLeft=6;overflow=hidden;html=1;whiteSpace=wrap;fontSize=16;" parent="6P1YGiJbpuXQbBjJBhPg-63" vertex="1">
          <mxGeometry x="60" width="154" height="24" as="geometry">
            <mxRectangle width="154" height="24" as="alternateBounds" />
          </mxGeometry>
        </mxCell>
        <mxCell id="6P1YGiJbpuXQbBjJBhPg-24" value="" style="fontSize=12;html=1;endArrow=ERoneToMany;startArrow=ERmandOne;rounded=0;entryX=1;entryY=0.5;entryDx=0;entryDy=0;endSize=14;startSize=14;exitX=0.558;exitY=0.009;exitDx=0;exitDy=0;exitPerimeter=0;" parent="1" source="lmLOYv4weuVmKFbOApRG-37" target="6P1YGiJbpuXQbBjJBhPg-11" edge="1">
          <mxGeometry width="100" height="100" relative="1" as="geometry">
            <mxPoint x="-517" y="528" as="sourcePoint" />
            <mxPoint x="-1131" y="528" as="targetPoint" />
            <Array as="points">
              <mxPoint x="-384" y="144" />
            </Array>
          </mxGeometry>
        </mxCell>
        <mxCell id="6P1YGiJbpuXQbBjJBhPg-25" value="View" style="edgeLabel;html=1;align=center;verticalAlign=middle;resizable=0;points=[];fontSize=18;" parent="6P1YGiJbpuXQbBjJBhPg-24" vertex="1" connectable="0">
          <mxGeometry x="0.0748" y="-3" relative="1" as="geometry">
            <mxPoint x="20" y="99" as="offset" />
          </mxGeometry>
        </mxCell>
        <mxCell id="EGp386n-PK-oxdC0ir5t-4" value="" style="fontSize=12;html=1;endArrow=ERzeroToOne;startArrow=ERmandOne;rounded=0;endSize=14;startSize=14;exitX=0;exitY=0.5;exitDx=0;exitDy=0;entryX=0.5;entryY=0;entryDx=0;entryDy=0;endFill=0;" edge="1" parent="1" source="6P1YGiJbpuXQbBjJBhPg-17" target="PcMSirVJnc6Lr53QsFWf-58">
          <mxGeometry width="100" height="100" relative="1" as="geometry">
            <mxPoint x="-517" y="528" as="sourcePoint" />
            <mxPoint x="-1248" y="384" as="targetPoint" />
            <Array as="points">
              <mxPoint x="-1248" y="192" />
            </Array>
          </mxGeometry>
        </mxCell>
        <mxCell id="EGp386n-PK-oxdC0ir5t-5" value="Is a" style="edgeLabel;html=1;align=center;verticalAlign=middle;resizable=0;points=[];fontSize=18;" vertex="1" connectable="0" parent="EGp386n-PK-oxdC0ir5t-4">
          <mxGeometry x="0.0748" y="-3" relative="1" as="geometry">
            <mxPoint as="offset" />
          </mxGeometry>
        </mxCell>
      </root>
    </mxGraphModel>
  </diagram>
</mxfile>
